<svg width="235" height="174" viewBox="0 0 235 174" fill="none" xmlns="http://www.w3.org/2000/svg">
<path d="M191.971 78.37H17.209V160.388H191.971V78.37Z" fill="#76AA60"/>
<path d="M181.81 88.278H27.371V150.479H181.81V88.278Z" fill="#90C67B"/>
<path fill-rule="evenodd" clip-rule="evenodd" d="M46.719 88.278C46.719 98.964 38.057 107.626 27.371 107.626V88.278H46.719Z" fill="#76AA60"/>
<path fill-rule="evenodd" clip-rule="evenodd" d="M162.463 88.278C162.463 98.964 171.125 107.626 181.811 107.626L181.81 88.278H162.463Z" fill="#76AA60"/>
<path fill-rule="evenodd" clip-rule="evenodd" d="M46.719 152.071C46.719 141.385 38.057 132.724 27.371 132.724V152.071H46.719Z" fill="#76AA60"/>
<path fill-rule="evenodd" clip-rule="evenodd" d="M162.463 152.071C162.463 141.385 171.125 132.724 181.811 132.724V152.071H162.463Z" fill="#76AA60"/>
<path d="M127.405 119.435C127.431 106.853 117.252 96.6316 104.669 96.6052C92.0868 96.5788 81.865 106.757 81.8386 119.339C81.8122 131.921 91.9911 142.143 104.574 142.169C117.156 142.196 127.378 132.017 127.405 119.435Z" fill="#76AA60"/>
<path d="M191.971 38.155H17.209V77.374H191.971V38.155Z" fill="#76AA60"/>
<path d="M191.971 75.497H17.209V79.25H191.971V75.497Z" fill="#90C67B"/>
<path d="M191.971 65.408H17.209V69.16H191.971V65.408Z" fill="#90C67B"/>
<path d="M191.971 55.318H17.209V59.071H191.971V55.318Z" fill="#90C67B"/>
<path d="M191.971 45.229H17.209V48.981H191.971V45.229Z" fill="#90C67B"/>
<path d="M112.68 59.98H96.5V160.387H112.68V59.98Z" fill="#FFD573"/>
<path d="M112.68 38.155H96.5V78.37H112.68V38.155Z" fill="#F2A900"/>
<path d="M164.801 54.4366C163.468 49.366 160.495 44.8508 159.117 39.5228C156.729 30.2855 162.497 23.4673 171.262 19.8514C190.383 11.9636 207.976 26.7833 200.806 46.8077C195.994 60.2452 189.156 67.2039 178.881 77.076C175.781 80.0541 171.497 83.9512 167.434 85.4307C158.676 88.6197 163.077 80.8614 164.891 75.6805C167.133 69.2827 166.492 60.8638 164.801 54.4366Z" fill="#70BAB8"/>
<path d="M151.777 90.9105C138.642 85.5956 125.081 77.8747 115.058 67.4599C103.487 55.4377 98.4042 31.7174 105.514 16.3999C112.88 0.532159 132.654 -3.30529 147.856 2.66814C163.839 8.94858 171.819 28.8288 174.347 44.6187C175.561 52.2041 175.938 60.3934 174.756 68.041C173.228 77.9328 167.956 83.7439 161.671 91.1801" fill="#9AD6D4"/>
<path d="M201.758 126.865C203.135 126.097 204.573 125.257 206.028 124.348C214.712 118.927 224.017 111.033 225.027 100.941C226.868 82.5457 212.655 67.1261 195.13 66.3805L195.127 66.3816C193.238 66.3001 191.31 66.3886 189.361 66.6648C183.946 67.4285 178.488 68.4705 173.273 70.1684C169.193 71.4977 165.257 73.234 161.607 75.5496C159.885 76.6426 157.828 78.0472 155.755 79.6824C150.493 83.8289 145.138 89.4382 144.965 95.0899L144.298 105.301C140.502 121.427 153.944 130.67 167.69 133.464C171.375 134.216 175.082 134.501 178.484 134.331C181.254 134.19 184.017 133.738 186.734 133.045C192.004 131.704 197.101 129.459 201.758 126.865Z" fill="#FAB017"/>
<path d="M153.288 86.0468C157.245 92.2069 159.585 100.146 158.553 107.522C157.353 116.101 150.571 122.392 143.435 126.615C126.534 136.616 102.619 134.449 92.0905 116.31C87.9662 109.204 86.8413 99.5961 90.5534 92.1154C93.4581 86.2613 98.7897 81.3556 104.634 78.6719C112.429 75.0934 123.632 70.7936 132.298 72.404C140.391 73.9088 148.799 79.0578 153.288 86.0468Z" fill="#231F20"/>
<path d="M142.706 114.484C142.358 116.054 140.439 117.483 139.228 118.385C137.595 119.6 135.727 120.523 133.801 121.168C130.204 122.373 125.561 122.449 122.611 119.724C121.585 118.775 123.085 117.144 124.059 118.127C126.655 120.744 130.227 120.636 133.557 119.602C135.305 119.06 136.945 118.217 138.447 117.179C139.123 116.712 139.751 116.181 140.356 115.626C140.917 115.112 141.35 114.407 141.966 113.967C142.322 113.712 142.795 114.082 142.706 114.484Z" fill="#FCB614"/>
<path d="M106.061 82.0136C105.311 81.655 104.838 80.956 104.294 80.3551C103.783 79.7901 103.18 79.3172 102.531 78.9226C101.013 77.9991 99.3041 77.4968 97.5692 77.1731C95.8915 76.86 94.1819 76.7978 92.4799 76.859C91.3298 76.9 88.2222 76.6941 89.1746 74.8075C89.9434 73.2851 92.7703 73.4833 94.1652 73.5198C96.0807 73.5698 98.0067 73.8146 99.8605 74.3017C101.719 74.7903 103.425 75.5773 104.979 76.7032C106.351 77.6971 108.035 79.4188 107.692 81.2584C107.554 82.0004 106.697 82.3181 106.061 82.0136Z" fill="#231F20"/>
<path d="M128.361 73.4049C128.045 71.0024 130.051 68.4441 131.54 66.7679C132.443 65.7528 133.498 64.8484 134.6 64.0589C135.804 63.1975 137.307 62.2142 138.824 62.191C140.155 62.1702 141.128 63.8814 140.085 64.902C139.169 65.7973 137.945 66.2647 136.886 66.9713C135.916 67.6182 135.043 68.3733 134.235 69.2114C132.759 70.7429 132.059 72.6194 130.857 74.3164C130.045 75.4625 128.504 74.4853 128.361 73.4049Z" fill="#231F20"/>
<path d="M138.427 61.008C138.691 59.5912 140.266 59.0369 141.548 58.9979C143.194 58.9484 144.707 59.8472 145.394 61.3387C146.842 64.4792 143.825 66.9273 140.9 66.992C139.396 67.0254 138.092 66.424 137.133 65.286C136.108 64.068 136.106 62.2866 137.111 61.0874C139.019 58.8113 143.201 59.9114 144.601 62.1516C145.183 63.0852 144.753 64.3684 143.682 64.7002C142.359 65.1104 140.09 65.7407 139.513 63.9097C138.932 62.0656 141.515 61.8157 142.659 61.4536C142.353 62.3033 142.047 63.1525 141.741 64.0023C141.541 63.6872 141.264 63.4899 140.753 63.3635C140.385 63.2724 140.407 63.2916 139.958 63.3225C139.981 63.3209 139.391 63.5304 139.623 63.4064C139.246 63.6077 139.812 63.1702 139.538 63.4686C139.676 63.3189 139.678 63.2046 139.694 63.0154C139.66 63.4044 139.593 62.7777 139.727 63.2102C139.667 63.0165 139.889 63.4854 139.897 63.498C139.749 63.2689 140.052 63.6209 140.084 63.6467C139.877 63.4793 140.34 63.7433 140.338 63.7428C140.368 63.756 140.829 63.8227 140.973 63.8263C142.02 63.8515 143.064 63.4742 142.746 62.4029C142.37 61.1374 140.392 61.84 139.587 62.0782C138.91 62.2775 138.3 61.6882 138.427 61.008Z" fill="#231F20"/>
<path d="M86.3664 75.1014C86.6294 74.5243 86.9021 74.0185 87.6248 73.8126C88.1923 73.6508 88.8311 73.6614 89.3895 73.8511C90.5797 74.2552 91.3981 75.1302 91.6049 76.3886C92.1057 79.4345 87.7614 80.6656 85.6512 79.3126C84.4753 78.559 83.67 77.1742 84.1328 75.7569C84.7125 73.9821 86.4322 73.2942 88.1392 73.0362C89.5555 72.8223 90.956 73.2087 91.8872 74.3154C92.5639 75.1201 92.6514 76.3724 92.349 77.3436C91.9281 78.694 90.9084 79.9348 89.4988 80.3111C87.6011 80.8174 85.9724 79.603 85.0524 78.0269C84.6948 77.4149 84.6482 76.4878 85.2203 75.9653C85.9658 75.284 86.5965 74.9031 87.637 75.02C88.0153 75.0624 88.3324 75.2713 88.6309 75.4863C88.7533 75.5733 88.7416 75.5662 88.5959 75.4651C88.7077 75.5359 88.822 75.588 88.9449 75.6365C90.2049 76.1287 89.6966 78.2783 88.3643 78.2095C88.0725 78.1943 87.7892 78.166 87.5065 78.0952C87.7847 78.1645 88.0669 78.0026 88.2677 77.8271C88.1008 77.9728 87.897 78.0972 87.7336 78.2454C87.7892 77.558 87.8454 76.8712 87.901 76.1838C88.0345 76.4144 88.1772 76.6339 88.338 76.8459C88.0467 76.462 88.9318 77.2879 88.4255 76.947C88.4852 76.985 88.5464 77.0204 88.6096 77.0522C88.9278 77.2237 88.2378 76.9465 88.5696 77.0421C88.6971 77.079 89.0036 77.0831 88.4933 77.0528C88.5813 77.0578 88.6693 77.0487 88.7568 77.0396C88.0547 77.1125 89.1124 76.8277 88.4806 77.1276C88.6243 77.0593 89.0886 76.681 88.6612 77.0548C88.7998 76.9339 88.9186 76.7918 89.0299 76.6461C88.6976 77.0806 89.0421 76.5869 89.1083 76.4443C89.1756 76.2829 89.1584 76.3335 89.0583 76.5955C89.0881 76.5115 89.1088 76.4246 89.1301 76.3381C89.1589 76.2187 89.1857 75.897 89.1392 76.4306C89.1463 76.3467 89.1432 76.2627 89.1402 76.1787C89.1336 76.0108 89.2752 76.597 89.1169 76.1489C89.2798 76.6097 89.2525 76.418 89.1599 76.2744C88.9895 76.0098 89.4583 76.5803 89.2226 76.3603C89.0901 76.2536 89.1361 76.2839 89.3617 76.4503C89.2687 76.3907 88.9616 76.2749 89.4108 76.4377C89.3071 76.4003 89.1979 76.3785 89.0901 76.3563C88.6926 76.2743 89.4629 76.3664 89.0198 76.3482C88.3223 76.3194 88.0254 76.3826 87.3072 76.6759C87.4741 76.6001 87.4746 76.6077 87.3087 76.6987C86.9344 76.9228 87.5136 76.4706 87.2308 76.7513C86.9567 77.0234 87.3841 76.459 87.2086 76.7751C87.0351 77.0877 87.293 76.4367 87.2232 76.7751C87.2389 76.5222 87.2465 76.4827 87.246 76.6552C87.252 77.0062 87.1463 76.2824 87.249 76.6218C87.2612 76.6537 87.2728 76.6855 87.2849 76.7174C87.1276 76.3881 87.1565 76.4508 87.3709 76.9051C87.1474 76.4043 87.5439 77.0179 87.2247 76.6608C87.2768 76.7159 87.3315 76.768 87.3886 76.8176C87.6688 77.071 87.1195 76.6658 87.4564 76.8641C87.5085 76.8944 87.8641 77.0224 87.5591 76.9253C87.685 76.9653 87.8165 76.9865 87.9465 77.0072C87.6542 76.9602 88.1013 76.9921 88.1316 76.9911C88.5095 76.9769 87.9789 77.0487 88.3916 76.9435C88.5428 76.9046 88.6895 76.8474 88.8372 76.7963C89.2439 76.6552 88.6475 76.9202 88.9859 76.7225C89.0158 76.7053 89.1422 76.5318 89.0583 76.6699C89.2221 76.4003 89.0041 76.9152 89.0845 76.6198C89.1655 76.3234 89.0901 76.8813 89.0906 76.5753C89.0906 76.2647 89.1655 76.8393 89.0906 76.5338C89.0749 76.4701 88.948 76.1894 89.0886 76.4746C89.0451 76.3861 88.9879 76.3047 88.9318 76.2238C89.0871 76.4463 88.908 76.2035 88.865 76.162C88.8109 76.1099 88.4321 75.852 88.6127 75.9658C88.5358 75.9172 88.4432 75.9061 88.3324 75.9026C88.0381 75.8924 87.9632 75.9835 87.6365 75.9956C87.4185 76.0037 87.2333 75.9375 87.0356 75.8576C87.4013 76.0058 87.2687 75.9031 87.0679 75.9405C86.5667 76.0321 86.1368 75.6057 86.3664 75.1014Z" fill="#231F20"/>
<path d="M186.734 133.045C189.14 125.483 188.241 113.362 187.099 106.794C185.277 96.3073 181.453 78.73 173.273 70.1684C169.193 71.4977 165.257 73.234 161.607 75.5496C159.885 76.6426 157.828 78.0472 155.755 79.6824C161.236 86.9036 164.07 94.5841 166.253 104.082C168.355 113.225 171.403 125.048 167.69 133.464C171.375 134.216 175.082 134.501 178.484 134.331C181.254 134.19 184.017 133.738 186.734 133.045Z" fill="#231F20"/>
<path d="M206.028 124.348C214.712 118.927 224.017 111.033 225.027 100.941C226.868 82.5457 212.655 67.1261 195.13 66.3805C200.969 73.8112 203.918 81.6782 206.171 91.4871C208.58 101.975 212.238 115.988 205.506 124.34C205.675 124.34 205.851 124.343 206.028 124.348Z" fill="#231F20"/>
<path d="M220.723 89.7765C220.757 89.7881 220.791 89.8002 220.825 89.8119C220.682 89.8645 220.539 89.9171 220.395 89.9702C220.934 89.0658 222.345 88.9632 223.303 88.7841C224.851 88.4943 226.374 88.0532 227.894 87.6461C229.346 87.2571 230.868 86.7817 232.378 86.7149C233.033 86.6861 235.305 87.0553 234.966 88.1605C234.676 89.1033 232.94 89.6854 232.101 89.8513C230.489 90.17 228.891 90.5686 227.287 90.9236C225.91 91.2281 224.482 91.6105 223.067 91.6616C222.496 91.6823 221.966 91.6323 221.404 91.5311C221.076 91.4719 220.851 91.3045 220.617 91.0759C220.427 90.8897 220.423 90.4138 220.365 90.345C220.151 90.0911 220.382 89.6576 220.723 89.7765Z" fill="#231F20"/>
<path d="M103.915 113.964C94.2026 111.81 91.4799 99.3957 96.4301 91.6353C102.129 82.7014 117.202 86.2597 120.556 95.4363C123.091 102.37 120.19 109.824 113.322 112.77C109.784 114.288 106.618 114.563 103.915 113.964Z" fill="white"/>
<path d="M106.112 92.7424C111.26 87.3932 119.963 91.6302 118.883 99.0057C117.922 105.565 108.831 107.916 105.459 101.87C103.766 98.8352 103.54 95.414 106.112 92.7424Z" fill="black"/>
<path d="M112.235 94.6418C112.66 92.2185 116.229 91.6586 117.304 93.9519C118.165 95.7874 117.169 98.1075 115.112 97.8763C113.399 97.6841 111.904 96.5259 112.235 94.6418Z" fill="white"/>
<path d="M137.976 100.851C130.124 99.1099 127.922 89.074 131.924 82.8001C136.531 75.5779 148.717 78.4543 151.428 85.8728C153.477 91.4785 151.133 97.5041 145.58 99.8858C142.72 101.112 140.16 101.335 137.976 100.851Z" fill="white"/>
<path d="M139.751 83.6949C143.914 79.3703 150.949 82.7956 150.076 88.7584C149.299 94.0611 141.949 95.9619 139.223 91.0739C137.855 88.6203 137.672 85.8546 139.751 83.6949Z" fill="black"/>
<path d="M144.701 85.2304C145.045 83.2715 147.93 82.8188 148.8 84.6725C149.496 86.1565 148.69 88.032 147.027 87.8454C145.642 87.6896 144.434 86.7534 144.701 85.2304Z" fill="white"/>
<path d="M20.1083 145.955C23.3407 146.295 26.9952 146.123 29.3157 143.899C30.1905 143.061 31.6021 141.735 31.8816 140.561C32.1908 139.262 31.5344 138.702 30.7429 137.423C28.7212 134.158 27.6 133.738 23.9233 133.366C22.7423 133.246 20.5602 132.714 19.3879 133.204C18.1975 133.702 16.308 136.112 15.4834 137.133C13.9642 139.012 14.3814 139.411 15.7638 141.372C16.8577 142.925 18.3842 144.564 19.3455 145.955" fill="#FAB017"/>
<path d="M5.58851 152.5C8.82086 152.84 12.4755 152.668 14.7959 150.444C15.6707 149.606 17.0823 148.28 17.3618 147.106C17.671 145.807 17.0146 145.247 16.2231 143.968C14.2014 140.703 13.0802 140.283 9.40351 139.911C8.22247 139.791 6.04042 139.259 4.86804 139.749C3.67771 140.247 1.78817 142.658 0.963423 143.678C-0.555802 145.558 -0.138551 145.956 1.24379 147.918C2.33773 149.47 3.8642 151.11 4.82551 152.5" fill="#FAB017"/>
<path d="M6.19289 166.424C9.42524 166.765 13.0797 166.592 15.4002 164.369C16.2751 163.53 17.6867 162.205 17.9661 161.031C18.2753 159.731 17.619 159.171 16.8275 157.893C14.8058 154.627 13.6846 154.208 10.0079 153.835C8.82684 153.716 6.6448 153.183 5.47242 153.673C4.28208 154.171 2.39238 156.582 1.5678 157.602C0.0485725 159.482 0.465832 159.88 1.84818 161.842C2.94211 163.395 4.46859 165.034 5.42989 166.424" fill="#FAB017"/>
<path d="M35.1631 153.334C38.3953 153.675 42.0499 153.502 44.3704 151.279C45.2452 150.44 46.6569 149.115 46.9363 147.941C47.2455 146.641 46.5892 146.081 45.7976 144.803C43.7759 141.537 42.6548 141.118 38.9781 140.745C37.797 140.626 35.615 140.093 34.4426 140.583C33.2522 141.081 31.3627 143.492 30.5381 144.512C29.0189 146.392 29.4362 146.79 30.8185 148.752C31.9124 150.304 33.4389 151.944 34.4002 153.334" fill="#FAB017"/>
<path d="M20.6412 159.879C23.8735 160.22 27.528 160.047 29.8485 157.824C30.7234 156.985 32.135 155.66 32.4144 154.486C32.7236 153.186 32.0673 152.626 31.2758 151.347C29.2541 148.082 28.1329 147.663 24.4562 147.29C23.2751 147.17 21.0931 146.638 19.9207 147.128C18.7304 147.626 16.8408 150.037 16.0161 151.057C14.4969 152.937 14.9141 153.335 16.2965 155.297C17.3904 156.849 18.9169 158.489 19.8782 159.879" fill="#FAB017"/>
<path d="M35.4494 167.318C38.6818 167.659 42.3364 167.486 44.6568 165.263C45.5316 164.424 46.9432 163.099 47.2227 161.925C47.5319 160.625 46.8755 160.065 46.084 158.786C44.0623 155.521 42.9411 155.102 39.2644 154.729C38.0834 154.61 35.9013 154.077 34.729 154.567C33.5386 155.065 31.6489 157.476 30.8243 158.496C29.3051 160.376 29.7224 160.774 31.1047 162.736C32.1986 164.289 33.7251 165.928 34.6864 167.318" fill="#FAB017"/>
<path d="M20.786 173.863C24.0183 174.204 27.6728 174.031 29.9933 171.808C30.8681 170.969 32.2798 169.644 32.5592 168.47C32.8684 167.17 32.212 166.61 31.4205 165.331C29.3988 162.066 28.2776 161.647 24.6009 161.274C23.4199 161.155 21.2379 160.622 20.0655 161.112C18.8751 161.61 16.9856 164.021 16.1609 165.041C14.6416 166.921 15.0589 167.319 16.4412 169.281C17.5352 170.833 19.0616 172.473 20.023 173.863" fill="#FAB017"/>
<path d="M21.1674 172.337C19.6415 171.384 17.3526 169.095 17.5434 167.187C17.7341 164.135 21.9304 162.419 24.6009 162.991C27.8435 163.754 31.0863 167.76 28.6065 170.621C27.0805 172.338 23.0749 173.101 21.1674 171.956" fill="#E79A24"/>
<path d="M36.2408 165.555C34.7148 164.601 32.4259 162.312 32.6167 160.405C32.8074 157.353 37.0038 155.636 39.6743 156.209C42.9169 156.972 46.1596 160.977 43.6799 163.838C42.1539 165.555 38.1483 166.318 36.2408 165.174" fill="#E79A24"/>
<path d="M21.4325 158.116C19.9065 157.162 17.6177 154.873 17.8085 152.966C17.9992 149.914 22.1955 148.197 24.866 148.77C28.1086 149.533 31.3514 153.538 28.8716 156.399C27.3456 158.116 23.34 158.879 21.4325 157.735" fill="#E79A24"/>
<path d="M6.38001 150.737C4.85402 149.783 2.56518 147.494 2.75593 145.586C2.94668 142.534 7.14301 140.818 9.81351 141.39C13.0561 142.153 16.2988 146.159 13.8191 149.02C12.2931 150.737 8.28751 151.5 6.38001 150.355" fill="#E79A24"/>
<path d="M6.38001 164.661C4.85402 163.707 2.56518 161.418 2.75593 159.511C2.94668 156.459 7.14301 154.742 9.81351 155.315C13.0561 156.078 16.2988 160.083 13.8191 162.944C12.2931 164.661 8.28751 165.424 6.38001 164.28" fill="#E79A24"/>
<path d="M20.6779 144.192C19.1519 143.238 16.8631 140.949 17.0538 139.041C17.2446 135.989 21.4409 134.273 24.1114 134.845C27.354 135.608 30.5967 139.614 28.117 142.475C26.591 144.192 22.5854 144.955 20.6779 143.81" fill="#E79A24"/>
<path d="M35.2001 151.571C33.6741 150.617 31.3852 148.328 31.576 146.421C31.7667 143.369 35.9631 141.652 38.6336 142.224C41.8763 142.987 45.1189 146.993 42.6392 149.854C41.1132 151.571 37.1076 152.334 35.2001 151.19" fill="#E79A24"/>
</svg>
